<svg width="1728" height="420" viewBox="0 0 1728 420" fill="none" xmlns="http://www.w3.org/2000/svg">
<g clip-path="url(#clip0_1965_2404)">
<g clip-path="url(#clip1_1965_2404)">
<path d="M4.32007 4.88184C4.32007 4.88184 59.0307 25.6464 84.5371 39.4584C109.654 53.0587 128.347 64.11 156.302 86.9107C202.957 124.965 280.897 217.034 329.97 259.432C362.88 287.865 383.996 304.543 416.804 324.347C454.988 347.396 494.505 365.301 547.056 386.037C623.332 416.138 763.978 452.167 833.608 477.435C874.279 492.194 898.488 499.949 929.126 516.392C960.22 533.08 1000.61 558.625 1018.7 577.137C1028.78 587.452 1034.56 597.224 1037.97 606.465C1040.49 613.273 1041.85 619.108 1040.62 626.017C1039 635.115 1031.82 647.735 1024.75 655.344C1017.77 662.864 1010.53 667.087 998.593 671.557C977.145 679.585 947.24 686.092 903.076 686.602C803.561 687.751 524.683 639.949 416.804 621.426C362.591 612.118 334.763 606.644 295.236 595.926C256.66 585.467 218.266 573.172 182.352 558.212C147.987 543.896 114.419 527.407 83.9679 508.705C55.3479 491.127 4.32007 450.142 4.32007 450.142" fill="black" fill-opacity="0.04"/>
<path d="M1781.12 -15.7272C1781.12 -15.7272 1761.58 185.096 1739.53 217.155C1729.62 219.336 1666.29 235.79 1658.18 244.753C1644.14 260.26 1638.37 307.859 1622.25 332.737C1607.01 356.272 1585.94 375.615 1565.4 391.393C1545.79 406.453 1523.58 418.317 1502.23 426.262C1482.23 433.707 1464.07 437.653 1441.45 438.907C1413.27 440.468 1378.44 437.011 1345.93 429.815C1310.46 421.965 1270.95 408.09 1237.11 391.393C1204.7 375.407 1171.23 354.438 1146.57 332.737C1126.04 314.673 1106.73 292.876 1096.47 274.082C1089.14 260.661 1085.55 247.221 1084.34 234.977C1083.33 224.637 1083.44 216.778 1087.37 205.65C1094.04 186.744 1110.02 164.027 1132.66 137.217C1175.58 86.4093 1287.62 -16.0769 1342.76 -58.3017C1374.93 -82.9352 1395.19 -93.6598 1424.08 -108.772C1454.83 -124.861 1522.39 -151.222 1522.39 -151.222" fill="black" fill-opacity="0.04"/>
<path d="M212.492 -13.3076C212.492 -13.3076 310.08 51.2908 360.813 79.6129C411.729 108.037 468.056 136.181 517.467 156.874C560.077 174.719 599.702 189.74 639.035 199.121C674.749 207.639 712.084 214.219 743.236 213.045C768.804 212.081 795.839 209.844 812.703 198.401C826.326 189.157 836.837 174.256 841.257 157.821C846.352 138.875 841.7 113.961 836.217 89.3891C829.219 58.0268 796.638 -13.3076 796.638 -13.3076" fill="black" fill-opacity="0.04"/>
<path d="M1468 437.999C1627.5 390.499 1674.5 311.499 1732 220.499L1776.5 508.999L1468 566.999C1352.67 578.999 1109.1 535.599 1023.5 449.999C916.5 342.999 976.5 281.999 1040.5 278.499C1091.7 275.699 1163.5 338.332 1193 369.999C1231.5 408.499 1340.4 475.999 1468 437.999Z" fill="black" fill-opacity="0.04"/>
<rect x="-204" y="-143.122" width="482" height="1318.58" transform="rotate(-41.1037 -204 -143.122)" fill="black" fill-opacity="0.05"/>
<path d="M1737.11 88C1615.91 70.8 1623.94 -32.5 1643.11 -82H1647.11L1775.61 -89C1813.28 -22.8333 1858.31 105.2 1737.11 88Z" fill="#F9E7E4"/>
<path d="M1612.5 80.5008C1589.3 64.5008 1588.83 13.5001 1591.5 -10.9999C1595 -16.5 1599 -11.8326 1599 -9.49923C1599.83 14.6674 1607.4 66.5008 1631 80.5008C1660.5 98.0008 1692 97.0008 1706 106.501C1717.2 114.101 1710.67 116.334 1706 116.501C1684.5 111.167 1635.7 96.5008 1612.5 80.5008Z" fill="white" fill-opacity="0.38"/>
<path d="M1648.5 143C1660 169.5 1742.5 172.5 1746 175.5C1751.83 182.166 1751.9 194.2 1705.5 189C1659.1 183.8 1641.5 156.166 1638.5 143C1638 134.166 1639.3 121.8 1648.5 143Z" fill="white" fill-opacity="0.38"/>
<path d="M53.984 612.248C-67.216 595.048 -75.126 479.247 -36.0161 442.248C3.0939 405.248 48.8436 415.174 73.874 466.248C111.541 532.414 175.184 629.448 53.984 612.248Z" fill="#F9E7E4"/>
<circle cx="1499" cy="205" r="10" fill="#BCE0FF" fill-opacity="0.37"/>
<circle cx="1224" cy="140" r="10" fill="#BCE0FF" fill-opacity="0.37"/>
<circle cx="734" cy="156" r="10" fill="#BCE0FF" fill-opacity="0.37"/>
<circle cx="424" cy="373" r="10" fill="white" fill-opacity="0.46"/>
<circle cx="159" cy="236" r="10" fill="#BCE0FF" fill-opacity="0.37"/>
<path d="M147.624 491.002C163.042 514.592 168.422 555.024 156.681 576.693C151.36 580.459 149.424 574.625 150.307 572.465C158.682 549.781 147.046 505.891 130.5 484C109.818 456.637 104.534 438.689 95.1708 424.597C87.6805 413.323 94.5731 413.729 98.9557 415.341C116.838 428.415 132.205 467.411 147.624 491.002Z" fill="white" fill-opacity="0.38"/>
</g>
</g>
<defs>
<clipPath id="clip0_1965_2404">
<rect width="1728" height="420" fill="white"/>
</clipPath>
<clipPath id="clip1_1965_2404">
<rect width="1728" height="594" fill="white"/>
</clipPath>
</defs>
</svg>
