<svg xmlns="http://www.w3.org/2000/svg" viewBox="0 0 512 512" style="height: 512px; width: 512px;"><g class="" transform="translate(0,0)" style=""><g><path d="M151 28C116.6 28 85.4 33.33 63.65 41.49C52.77 45.57 44.29 50.39 39.03 55.05C33.77 59.71 32 63.62 32 67C32 70.38 33.77 74.29 39.03 78.95C44.29 83.61 52.77 88.43 63.65 92.51C85.4 100.7 116.6 106 151 106C185.4 106 216.6 100.7 238.3 92.51C249.2 88.43 257.7 83.61 263 78.95C268.2 74.29 270 70.38 270 67C270 63.62 268.2 59.71 263 55.05C257.7 50.39 249.2 45.57 238.3 41.49C216.6 33.33 185.4 28 151 28Z" class="" fill="#708090" fill-opacity="1"></path><path d="M216 56C229.255 56 240 59.582 240 64C240 68.418 229.255 72 216 72C202.745 72 192 68.418 192 64C192 59.582 202.745 56 216 56Z" class="selected" fill="#ebedf1" fill-opacity="0"></path><path d="M32 96.35L32 179C32 181 33.23 183.6 38.87 187.2C44.5 190.8 53.75 194.4 65.18 197.3C88.04 203 119.6 206 151 206C182.4 206 214 203 236.8 197.3C248.2 194.4 257.5 190.8 263.1 187.2C268.8 183.6 270 181 270 179L270 96.35C263 101.4 254.5 105.7 244.7 109.4C220.1 118.6 187.3 124 151 124C114.7 124 81.9 118.6 57.33 109.4C47.49 105.7 38.96 101.4 32 96.35Z" class="" fill="#708090" fill-opacity="1"></path><path d="M288 107L288 351.1L327.8 360.2C324.4 352.3 322 343.1 320.6 332.7C317.1 306.6 319.1 273.4 327.2 238C335.2 202.6 347.7 171.9 362.2 149.9C368 141.1 374.1 133.8 380.5 128.1L288 107Z" class="" fill="#708090" fill-opacity="1"></path><path d="M428.2 184.9C372.2 192.5 314.1 293.2 353.8 365.7C354.7 366.2 355.5 366.5 356.4 366.7C359.7 367.5 363.9 366.6 369.5 362.5C375.3 358.4 381.9 351.2 388.3 341.5C401.1 322.1 413.2 292.9 420.8 259.3C427 232 429.3 206 428.2 184.9Z" class="" fill="#708090" fill-opacity="1"></path><path d="M32 204L32 288C32 290 33.23 292.6 38.87 296.2C44.5 299.8 53.75 303.4 65.18 306.3C88.04 312 119.6 315 151 315C182.4 315 214 312 236.8 306.3C248.2 303.4 257.5 299.8 263.1 296.2C268.8 292.6 270 290 270 288L270 204C262.1 208.6 252.4 211.9 241.2 214.7C216 221 183.6 224 151 224C118.4 224 85.96 221 60.82 214.7C49.64 211.9 39.91 208.5 32 204Z" class="" fill="#708090" fill-opacity="1"></path><path d="M32 313L32 371C32 376 34.2 380.3 39.86 385.2C45.52 390 54.56 394.7 65.85 398.5C88.42 406 119.8 410 151 410C182.2 410 213.6 406 236.2 398.5C247.4 394.7 256.5 390 262.1 385.2C267.8 380.3 270 376 270 371L270 313C262.1 317.6 252.4 320.9 241.2 323.7C216 330 183.6 333 151 333C118.4 333 85.96 330 60.82 323.7C49.64 320.9 39.91 317.5 32 313Z" class="" fill="#708090" fill-opacity="1"></path><path d="M410.5 367.9C409.8 367.9 409 367.9 408.3 368C388.8 369.5 401.8 413.2 384 421.2C368.7 428.2 352.5 404.6 335.8 406.7C307.9 410.2 257.7 422.5 263.5 450C271.5 487.7 340.2 458.1 378.3 464C414.3 469.6 465.5 514.9 485.7 484.5C511.1 446.3 456.6 366.8 410.5 367.9Z" class="" fill="#6699cc" fill-opacity="1"></path><path d="M228.6 459.2C223.5 459.2 219.2 461.3 216.6 465.6C211.9 473.3 222.8 484.7 230.9 488.6C240.3 493.1 266.5 494.4 262 485C254.2 468.6 239.7 459 228.6 459.2Z" class="" fill="#6699cc" fill-opacity="1"></path></g></g></svg>