<svg width="131" height="28" viewBox="0 0 131 28" fill="none" xmlns="http://www.w3.org/2000/svg">
<path d="M0.5 1.62842V26.3713C0.5 26.9236 0.947715 27.3713 1.5 27.3713H12.5698C13.2268 27.3713 13.7064 26.7526 13.5373 26.1177C11.4674 18.3476 7.80838 4.54468 7.43333 2.85699C7.03714 1.07413 4.95714 0.628418 3.96667 0.628418H1.5C0.947715 0.628418 0.5 1.07613 0.5 1.62842Z" fill="#013993" stroke="#013993"/>
<path d="M27 25.9995V18.2313C27 17.2773 25.383 16.4695 24.4345 16.5722C23.3266 16.6922 21.853 16.4425 20 15.2995C16.3327 13.0374 14.151 14.2742 13.3505 14.951C13.1118 15.1528 13.0479 15.4768 13.1294 15.7786L15.9616 26.2604C16.0794 26.6965 16.4751 26.9995 16.927 26.9995H26C26.5523 26.9995 27 26.5518 27 25.9995Z" fill="#B9D3FF" stroke="#B9D3FF"/>
<path class="reservoir-text" d="M46.8999 8.57812C47.9364 8.57812 48.7906 8.70312 49.4624 8.95312C50.1395 9.20312 50.6421 9.58073 50.9702 10.0859C51.2984 10.5911 51.4624 11.2292 51.4624 12C51.4624 12.5208 51.3635 12.9766 51.1656 13.3672C50.9676 13.7578 50.7072 14.0885 50.3843 14.3594C50.0614 14.6302 49.7124 14.8516 49.3374 15.0234L52.6968 20H50.0093L47.2827 15.6172H45.9937V20H43.5718V8.57812H46.8999ZM46.7281 10.5625H45.9937V13.6484H46.7749C47.577 13.6484 48.1499 13.5156 48.4937 13.25C48.8426 12.9792 49.0171 12.5833 49.0171 12.0625C49.0171 11.5208 48.8296 11.1354 48.4546 10.9062C48.0848 10.6771 47.5093 10.5625 46.7281 10.5625ZM57.5324 11.1016C58.3397 11.1016 59.035 11.2578 59.6183 11.5703C60.2016 11.8776 60.6522 12.3255 60.9699 12.9141C61.2876 13.5026 61.4464 14.2214 61.4464 15.0703V16.2266H55.8136C55.8397 16.8984 56.0402 17.4271 56.4152 17.8125C56.7954 18.1927 57.3214 18.3828 57.9933 18.3828C58.5506 18.3828 59.061 18.3255 59.5246 18.2109C59.9881 18.0964 60.4647 17.9245 60.9542 17.6953V19.5391C60.522 19.7526 60.0688 19.9089 59.5949 20.0078C59.1261 20.1068 58.5558 20.1562 57.8839 20.1562C57.0089 20.1562 56.2329 19.9948 55.5558 19.6719C54.8839 19.349 54.3553 18.8568 53.9699 18.1953C53.5897 17.5339 53.3996 16.7005 53.3996 15.6953C53.3996 14.6745 53.5714 13.8255 53.9152 13.1484C54.2641 12.4661 54.7485 11.9557 55.3683 11.6172C55.9881 11.2734 56.7095 11.1016 57.5324 11.1016ZM57.548 12.7969C57.0845 12.7969 56.699 12.9453 56.3917 13.2422C56.0897 13.5391 55.9152 14.0052 55.8683 14.6406H59.2121C59.2069 14.2865 59.1417 13.9714 59.0167 13.6953C58.897 13.4193 58.7147 13.2005 58.4699 13.0391C58.2303 12.8776 57.923 12.7969 57.548 12.7969ZM69.4617 17.4062C69.4617 18 69.3211 18.5026 69.0398 18.9141C68.7638 19.3203 68.3497 19.6302 67.7976 19.8438C67.2455 20.0521 66.558 20.1562 65.7351 20.1562C65.1257 20.1562 64.6023 20.1172 64.1648 20.0391C63.7325 19.9609 63.295 19.8307 62.8523 19.6484V17.6797C63.3263 17.8932 63.8341 18.0703 64.3757 18.2109C64.9226 18.3464 65.4018 18.4141 65.8132 18.4141C66.2768 18.4141 66.6075 18.3464 66.8054 18.2109C67.0086 18.0703 67.1101 17.888 67.1101 17.6641C67.1101 17.5182 67.0685 17.388 66.9851 17.2734C66.907 17.1536 66.7351 17.0208 66.4695 16.875C66.2039 16.724 65.7872 16.5286 65.2195 16.2891C64.6726 16.0599 64.2221 15.8281 63.8679 15.5938C63.519 15.3594 63.2586 15.0833 63.0867 14.7656C62.92 14.4427 62.8367 14.0339 62.8367 13.5391C62.8367 12.7318 63.1492 12.125 63.7742 11.7188C64.4044 11.3073 65.2455 11.1016 66.2976 11.1016C66.8393 11.1016 67.3549 11.1562 67.8445 11.2656C68.3393 11.375 68.8471 11.5495 69.3679 11.7891L68.6492 13.5078C68.2169 13.3203 67.808 13.1667 67.4226 13.0469C67.0424 12.9271 66.6544 12.8672 66.2586 12.8672C65.9096 12.8672 65.6466 12.9141 65.4695 13.0078C65.2924 13.1016 65.2039 13.2448 65.2039 13.4375C65.2039 13.5781 65.2481 13.7031 65.3367 13.8125C65.4304 13.9219 65.6075 14.0443 65.8679 14.1797C66.1336 14.3099 66.5216 14.4792 67.032 14.6875C67.5268 14.8906 67.9565 15.1042 68.3211 15.3281C68.6856 15.5469 68.9669 15.8203 69.1648 16.1484C69.3627 16.4714 69.4617 16.8906 69.4617 17.4062ZM74.9066 11.1016C75.7139 11.1016 76.4092 11.2578 76.9926 11.5703C77.5759 11.8776 78.0264 12.3255 78.3441 12.9141C78.6618 13.5026 78.8207 14.2214 78.8207 15.0703V16.2266H73.1879C73.2139 16.8984 73.4144 17.4271 73.7894 17.8125C74.1696 18.1927 74.6957 18.3828 75.3676 18.3828C75.9249 18.3828 76.4353 18.3255 76.8988 18.2109C77.3624 18.0964 77.8389 17.9245 78.3285 17.6953V19.5391C77.8962 19.7526 77.4431 19.9089 76.9691 20.0078C76.5004 20.1068 75.9301 20.1562 75.2582 20.1562C74.3832 20.1562 73.6071 19.9948 72.9301 19.6719C72.2582 19.349 71.7295 18.8568 71.3441 18.1953C70.9639 17.5339 70.7738 16.7005 70.7738 15.6953C70.7738 14.6745 70.9457 13.8255 71.2894 13.1484C71.6384 12.4661 72.1228 11.9557 72.7426 11.6172C73.3624 11.2734 74.0837 11.1016 74.9066 11.1016ZM74.9222 12.7969C74.4587 12.7969 74.0733 12.9453 73.766 13.2422C73.4639 13.5391 73.2894 14.0052 73.2426 14.6406H76.5863C76.5811 14.2865 76.516 13.9714 76.391 13.6953C76.2712 13.4193 76.0889 13.2005 75.8441 13.0391C75.6045 12.8776 75.2972 12.7969 74.9222 12.7969ZM85.6172 11.1016C85.737 11.1016 85.875 11.1094 86.0312 11.125C86.1927 11.1354 86.3229 11.151 86.4219 11.1719L86.2422 13.4062C86.1641 13.3802 86.0521 13.362 85.9062 13.3516C85.7656 13.3359 85.6432 13.3281 85.5391 13.3281C85.2318 13.3281 84.9323 13.3672 84.6406 13.4453C84.3542 13.5234 84.0964 13.651 83.8672 13.8281C83.638 14 83.4557 14.2292 83.3203 14.5156C83.1901 14.7969 83.125 15.1432 83.125 15.5547V20H80.7422V11.2656H82.5469L82.8984 12.7344H83.0156C83.1875 12.4375 83.401 12.1667 83.6562 11.9219C83.9167 11.6719 84.2109 11.474 84.5391 11.3281C84.8724 11.1771 85.2318 11.1016 85.6172 11.1016ZM90.0699 20L86.7418 11.2656H89.234L90.9215 16.2422C91.0152 16.5339 91.0882 16.8411 91.1402 17.1641C91.1975 17.487 91.2366 17.776 91.2574 18.0312H91.3199C91.3356 17.7552 91.372 17.4609 91.4293 17.1484C91.4918 16.8359 91.5725 16.5339 91.6715 16.2422L93.3512 11.2656H95.8434L92.5152 20H90.0699ZM105.023 15.6172C105.023 16.3464 104.924 16.9922 104.726 17.5547C104.533 18.1172 104.249 18.5938 103.874 18.9844C103.504 19.3698 103.057 19.6615 102.53 19.8594C102.01 20.0573 101.421 20.1562 100.765 20.1562C100.15 20.1562 99.5852 20.0573 99.0696 19.8594C98.5591 19.6615 98.1138 19.3698 97.7336 18.9844C97.3586 18.5938 97.067 18.1172 96.8586 17.5547C96.6555 16.9922 96.5539 16.3464 96.5539 15.6172C96.5539 14.6484 96.7258 13.8281 97.0696 13.1562C97.4133 12.4844 97.9029 11.974 98.5383 11.625C99.1737 11.276 99.9315 11.1016 100.812 11.1016C101.629 11.1016 102.353 11.276 102.984 11.625C103.619 11.974 104.116 12.4844 104.476 13.1562C104.84 13.8281 105.023 14.6484 105.023 15.6172ZM98.9836 15.6172C98.9836 16.1901 99.0461 16.6719 99.1711 17.0625C99.2961 17.4531 99.4914 17.7474 99.7571 17.9453C100.023 18.1432 100.369 18.2422 100.796 18.2422C101.218 18.2422 101.559 18.1432 101.82 17.9453C102.085 17.7474 102.278 17.4531 102.398 17.0625C102.523 16.6719 102.585 16.1901 102.585 15.6172C102.585 15.0391 102.523 14.5599 102.398 14.1797C102.278 13.7943 102.085 13.5052 101.82 13.3125C101.554 13.1198 101.208 13.0234 100.78 13.0234C100.15 13.0234 99.692 13.2396 99.4055 13.6719C99.1242 14.1042 98.9836 14.7526 98.9836 15.6172ZM109.358 11.2656V20H106.975V11.2656H109.358ZM108.171 7.84375C108.525 7.84375 108.83 7.92708 109.085 8.09375C109.34 8.25521 109.468 8.5599 109.468 9.00781C109.468 9.45052 109.34 9.75781 109.085 9.92969C108.83 10.0964 108.525 10.1797 108.171 10.1797C107.811 10.1797 107.504 10.0964 107.249 9.92969C106.999 9.75781 106.874 9.45052 106.874 9.00781C106.874 8.5599 106.999 8.25521 107.249 8.09375C107.504 7.92708 107.811 7.84375 108.171 7.84375ZM116.725 11.1016C116.845 11.1016 116.983 11.1094 117.139 11.125C117.301 11.1354 117.431 11.151 117.53 11.1719L117.35 13.4062C117.272 13.3802 117.16 13.362 117.014 13.3516C116.874 13.3359 116.751 13.3281 116.647 13.3281C116.34 13.3281 116.04 13.3672 115.749 13.4453C115.462 13.5234 115.204 13.651 114.975 13.8281C114.746 14 114.564 14.2292 114.428 14.5156C114.298 14.7969 114.233 15.1432 114.233 15.5547V20H111.85V11.2656H113.655L114.006 12.7344H114.124C114.295 12.4375 114.509 12.1667 114.764 11.9219C115.025 11.6719 115.319 11.474 115.647 11.3281C115.98 11.1771 116.34 11.1016 116.725 11.1016Z"/>
</svg>
