<svg width="68" height="25" viewBox="0 0 68 25" fill="white" stroke="white" xmlns="http://www.w3.org/2000/svg">
<path d="M28.3181 12.2471H14.9662V11.7444H28.3181V1.49413H14.6721V1.02251H28.9078V23H0.5V1.02283H1.09068V22.5316H28.3181V12.2471Z" fill="white" fill-opacity="0.98"/>
<path d="M49.8706 23V1.99802L66.9104 23H67.5V1.03018H66.9468V22.1201L49.7964 1.03018H49.281V23H49.8706Z" fill="white" fill-opacity="0.98"/>
<path fill-rule="evenodd" clip-rule="evenodd" d="M28.3872 1.24319L28.8791 1L39.0707 21.7452L49.3096 1.0079L49.801 1.25207L39.0695 22.9871L28.3872 1.24319Z" fill="white" fill-opacity="0.98"/>
<path fill-rule="evenodd" clip-rule="evenodd" d="M44.29 12.2567H33.9004V11.7066H44.29V12.2567Z" fill="white" fill-opacity="0.98"/>
<path d="M29.1578 23V3.37872L38.8451 23.0973L39.0689 23.5529L39.2936 23.0978L44.5229 12.5067H44.54V12.4721L49.031 3.37629V23V23.25H49.281H49.8706H50.1206V23V2.70295L66.7162 23.1575L66.7913 23.25H66.9104H67.5H67.75V23V1.03018V0.780182H67.5H66.9468H66.6968V1.03018V21.4164L49.9903 0.872451L49.9153 0.780182H49.7964H49.4131L49.1964 0.672483L49.1432 0.780182H49.031V1.0075L43.8718 11.4566H34.2947L29.1578 1.00036V0.772514H29.0458L28.9929 0.664813L28.7751 0.772514H14.6721H14.4221V1.02251V1.49413V1.74413H14.6721H28.0681V11.4944H14.9662H14.7162V11.7444V12.2471V12.4971H14.9662H28.0681V22.2816H1.34068V1.02283V0.772828H1.09068H0.5H0.25V1.02283V23V23.25H0.5H28.9078H29.1578V23ZM39.0713 21.1793L34.8106 12.5067H43.3533L39.0713 21.1793Z" stroke="white" stroke-opacity="0.98" stroke-width="0.5"/>
</svg>
