<svg width="152" height="152" viewBox="0 0 152 152" fill="none" xmlns="http://www.w3.org/2000/svg">
<path d="M18.25 18.7207V133.279C18.25 133.831 18.6977 134.279 19.25 134.279H75.2276C75.8847 134.279 76.3693 133.68 76.2001 133.045C67.4537 100.238 50.174 35.107 48.4689 27.4339C46.7421 19.6633 37.6764 17.7207 33.3594 17.7207H19.25C18.6977 17.7207 18.25 18.1684 18.25 18.7207Z" fill="#013993" stroke="#013993"/>
<path d="M133.75 131.659V84.5964C133.75 83.6424 132.382 83.0846 131.624 83.6648C127.719 86.6563 118.387 91.0076 103.241 81.6646C84.7175 70.2388 74.8902 79.2934 73.0501 81.2955C72.8386 81.5257 72.779 81.8418 72.8606 82.1437L86.3099 131.92C86.4277 132.356 86.8234 132.659 87.2753 132.659H132.75C133.302 132.659 133.75 132.211 133.75 131.659Z" fill="#B9D3FF" stroke="#B9D3FF"/>
</svg>
